HIERARCHY
ROOT root
{
	OFFSET 0.000000 0.000000 0.000000
	CHANNELS 6 Xposition Yposition Zposition Zrotation Yrotation Xrotation
	JOINT lhip
	{
		OFFSET 0.058581 -0.082280 -0.017664
		CHANNELS 3 Zrotation Yrotation Xrotation
		JOINT lknee
		{
			OFFSET 0.043451 -0.386469 0.008037
			CHANNELS 3 Zrotation Yrotation Xrotation
			JOINT lankle
			{
				OFFSET -0.014790 -0.426874 -0.037428
				CHANNELS 3 Zrotation Yrotation Xrotation
				JOINT ltoe
				{
					OFFSET 0.041054 -0.060286 0.122042
					CHANNELS 3 Zrotation Yrotation Xrotation
					End Site
					{
						OFFSET 0.000000 0.000000 0.000000
					}
				}
			}
		}
	}
	JOINT rhip
	{
		OFFSET -0.060310 -0.090513 -0.013543
		CHANNELS 3 Zrotation Yrotation Xrotation
		JOINT rknee
		{
			OFFSET -0.043257 -0.383688 -0.004843
			CHANNELS 3 Zrotation Yrotation Xrotation
			JOINT rankle
			{
				OFFSET 0.019056 -0.420046 -0.034562
				CHANNELS 3 Zrotation Yrotation Xrotation
				JOINT rtoe
				{
					OFFSET -0.034840 -0.062106 0.130323
					CHANNELS 3 Zrotation Yrotation Xrotation
					End Site
					{
						OFFSET 0.000000 0.000000 0.000000
					}
				}
			}
		}
	}
	JOINT lowerback
	{
		OFFSET 0.004439 0.124404 -0.038385
		CHANNELS 3 Zrotation Yrotation Xrotation
		JOINT upperback
		{
			OFFSET 0.004488 0.137956 0.026820
			CHANNELS 3 Zrotation Yrotation Xrotation
			JOINT chest
			{
				OFFSET -0.002265 0.056032 0.002855
				CHANNELS 3 Zrotation Yrotation Xrotation
				JOINT lowerneck
				{
					OFFSET -0.013390 0.211636 -0.033468
					CHANNELS 3 Zrotation Yrotation Xrotation
					JOINT upperneck
					{
						OFFSET 0.010113 0.088937 0.050410
						CHANNELS 3 Zrotation Yrotation Xrotation
						End Site
						{
							OFFSET 0.000000 0.000000 0.000000
						}
					}
				}
				JOINT lclavicle
				{
					OFFSET 0.071702 0.114000 -0.018898
					CHANNELS 3 Zrotation Yrotation Xrotation
					JOINT lshoulder
					{
						OFFSET 0.122921 0.045205 -0.019046
						CHANNELS 3 Zrotation Yrotation Xrotation
						JOINT lelbow
						{
							OFFSET 0.255332 -0.015649 -0.022946
							CHANNELS 3 Zrotation Yrotation Xrotation
							JOINT lwrist
							{
								OFFSET 0.265709 0.012698 -0.007375
								CHANNELS 3 Zrotation Yrotation Xrotation
								End Site
								{
									OFFSET 0.000000 0.000000 0.000000
								}
							}
						}
					}
				}
				JOINT rclavicle
				{
					OFFSET -0.082954 0.112472 -0.023707
					CHANNELS 3 Zrotation Yrotation Xrotation
					JOINT rshoulder
					{
						OFFSET -0.113228 0.046853 -0.008472
						CHANNELS 3 Zrotation Yrotation Xrotation
						JOINT relbow
						{
							OFFSET -0.260127 -0.014369 -0.031269
							CHANNELS 3 Zrotation Yrotation Xrotation
							JOINT rwrist
							{
								OFFSET -0.269108 0.006794 -0.006027
								CHANNELS 3 Zrotation Yrotation Xrotation
								End Site
								{
									OFFSET 0.000000 0.000000 0.000000
								}
							}
						}
					}
				}
			}
		}
	}
}
MOTION
Frames: 7
Frame Time: 0.033333
-0.618858 1.316967 1.042001 38.049486 -1.112994 88.368283 -1.121865 4.994248 -0.354414 -3.425586 -2.609638 2.188175 5.856040 11.041716 -9.095813 0.000000 -0.000000 0.000000 -6.957161 -6.927516 -7.605524 -0.537197 -4.948569 27.559577 5.268657 -12.469943 -14.208695 0.000000 -0.000000 0.000000 -2.087284 0.201000 11.964811 -0.229193 -1.870273 -4.708867 -0.142048 -1.716997 2.041536 -0.051679 2.351654 -7.635823 -0.890184 -1.981554 7.073838 -24.178662 5.653164 0.959241 -49.743098 -5.652342 6.467519 5.834656 -37.702664 8.328112 1.513679 -7.195055 -6.647360 27.484761 -2.925514 0.730175 53.254058 -4.339530 16.989213 -7.838946 33.578291 3.968672 3.255484 3.284575 0.514396 
-0.617694 1.316993 1.041895 38.828352 -1.061902 88.723004 -1.133871 4.914222 -0.200703 -3.394744 -2.960572 1.113769 6.014054 10.712365 -8.620812 0.000000 -0.000000 0.000000 -7.053233 -6.958612 -7.961731 -0.797847 -4.257091 26.324356 5.210048 -12.019112 -14.440507 0.000000 -0.000000 0.000000 -2.053350 0.146167 11.794326 -0.198636 -2.077709 -4.884110 -0.153199 -1.682090 1.956069 -0.138739 1.762029 -7.877671 -0.490765 -2.895561 7.280416 -23.981756 5.555767 1.061837 -49.948761 -6.261101 6.918293 5.646444 -39.595881 8.687361 1.692217 -7.411422 -7.580639 27.420390 -2.968021 0.806934 53.543888 -4.725765 17.076094 -7.860005 34.169800 4.161166 3.153640 3.276218 -0.181064 
-0.617147 1.316398 1.042299 39.538867 -1.033767 88.703906 -0.850247 4.985268 -0.179883 -3.806465 -2.969921 1.340597 6.049801 10.079248 -8.820007 0.000000 -0.000000 0.000000 -7.289354 -6.471582 -7.896367 -0.986684 -4.023532 25.411688 5.993202 -11.670785 -14.387459 0.000000 -0.000000 0.000000 -1.869605 0.024763 11.985040 -0.255227 -1.990723 -5.037729 -0.507427 -1.714024 1.891447 0.149005 1.198944 -8.006117 -0.156075 -3.749721 7.321829 -23.857002 5.434362 1.374790 -49.837594 -6.944359 7.100455 5.169708 -41.521669 9.315337 1.568647 -7.896148 -7.854781 27.764449 -3.196295 0.548744 53.416407 -4.923922 17.368692 -8.237024 34.852104 4.455542 2.450121 3.228024 0.626196 
-0.616968 1.315448 1.042704 39.891131 -0.743448 88.619237 -0.520008 4.573937 -0.409251 -3.798108 -3.022366 1.919791 5.682916 10.161491 -9.157823 0.000000 -0.000000 0.000000 -7.332494 -5.941619 -7.674322 -1.041568 -3.473945 24.163303 6.682600 -10.876260 -12.914636 0.000000 -0.000000 0.000000 -1.845094 -0.223903 12.355757 -0.113936 -2.033817 -5.131855 -0.113819 -1.699250 1.616357 0.325872 0.961527 -8.195502 -0.112620 -3.705055 7.038278 -24.166518 5.809004 0.913309 -50.268556 -6.905338 7.773364 4.884407 -43.332673 10.135544 1.929713 -8.543830 -8.074195 27.205249 -2.957835 0.382100 53.281631 -4.669055 17.648261 -7.074402 35.764332 4.961738 2.657457 3.540765 -0.062235 
-0.618241 1.314771 1.042620 40.006604 -0.747658 88.891354 -0.537375 3.985465 -1.179637 -3.676952 -3.402050 2.678089 5.515108 10.479406 -9.362000 0.000000 -0.000000 0.000000 -7.432163 -5.913874 -7.908591 -1.207390 -3.247140 23.373865 6.533482 -11.188807 -13.007929 0.000000 -0.000000 0.000000 -1.647537 0.212544 12.036897 -0.128370 -1.937549 -4.950040 -0.389971 -1.781555 1.662549 0.814134 0.322395 -8.998274 0.016310 -4.672952 7.158363 -24.102713 5.475017 1.160358 -50.312608 -7.287739 8.061219 4.891944 -44.107332 9.951950 2.397449 -8.579127 -8.316893 27.462121 -2.993381 0.148053 53.354148 -4.577890 17.894011 -7.604241 36.384002 4.968673 2.684379 3.633149 -0.073459 
-0.619819 1.312939 1.042437 39.820087 -0.612441 88.620624 -0.301007 4.134316 -1.424950 -3.677908 -3.303733 3.782806 5.369502 10.651135 -9.925751 0.000000 -0.000000 0.000000 -7.549102 -6.214242 -7.625088 -1.492068 -2.931344 22.311892 6.309627 -10.768897 -12.436832 0.000000 -0.000000 0.000000 -1.418258 0.534261 12.495673 -0.209248 -1.790048 -5.081703 -0.365311 -1.771413 1.654309 0.966751 0.007935 -9.451867 0.047667 -4.598727 7.319775 -24.289302 5.409410 1.023222 -50.433228 -7.118168 8.197589 4.610123 -44.796088 10.325212 2.771358 -8.724995 -8.360752 27.339262 -2.694749 0.255006 52.923310 -4.215908 17.876301 -6.579189 37.632927 4.729973 1.705708 3.802561 -0.648327 
-0.620671 1.310862 1.041532 39.422411 -0.474920 88.501542 0.027053 4.513479 -1.639368 -3.798460 -2.832446 4.809462 5.739674 10.562396 -10.527653 0.000000 -0.000000 0.000000 -7.864173 -6.213965 -7.455618 -1.470715 -2.446650 21.181594 6.276140 -10.170919 -11.420313 0.000000 -0.000000 0.000000 -1.428226 0.537614 12.367372 -0.139972 -1.681081 -4.931558 -0.042858 -1.441111 1.792606 0.858013 -0.489304 -9.470725 0.136159 -4.713331 7.174414 -24.500190 5.368157 0.928156 -51.067318 -6.587114 8.286681 4.718434 -44.910346 10.700534 3.020431 -8.823649 -8.560312 26.904650 -2.274722 0.589737 52.851012 -3.496480 17.703205 -6.493031 38.576941 4.938290 1.148815 3.839720 -0.792617 
